<mxfile host="app.diagrams.net" modified="2021-03-20T11:29:40.069Z" agent="5.0 (Windows)" etag="KmhZYENh-piWiaWQHhMg" version="14.4.9" type="github">
  <diagram id="kgpKYQtTHZ0yAKxKKP6v" name="Page-1">
    <mxGraphModel dx="1822" dy="1191" grid="0" gridSize="10" guides="1" tooltips="1" connect="1" arrows="1" fold="1" page="0" pageScale="1" pageWidth="850" pageHeight="1100" math="0" shadow="0">
      <root>
        <mxCell id="0" />
        <mxCell id="1" parent="0" />
        <mxCell id="GEfkpnBCydYt2Uem3Nhz-18" value="" style="shape=folder;fontStyle=1;spacingTop=10;tabWidth=97;tabHeight=50;tabPosition=left;html=1;" parent="1" vertex="1">
          <mxGeometry x="-198" y="-12" width="953" height="756" as="geometry" />
        </mxCell>
        <mxCell id="3nuBFxr9cyL0pnOWT2aG-1" value="TimeManagement" style="shape=umlLifeline;perimeter=lifelinePerimeter;container=1;collapsible=0;recursiveResize=0;rounded=0;shadow=0;strokeWidth=1;" parent="1" vertex="1">
          <mxGeometry x="120" y="80" width="100" height="652" as="geometry" />
        </mxCell>
        <mxCell id="3nuBFxr9cyL0pnOWT2aG-2" value="" style="points=[];perimeter=orthogonalPerimeter;rounded=0;shadow=0;strokeWidth=1;" parent="3nuBFxr9cyL0pnOWT2aG-1" vertex="1">
          <mxGeometry x="45" y="70" width="10" height="236" as="geometry" />
        </mxCell>
        <mxCell id="XJ2rWfy9zvPIhmqtdK8Y-41" value="" style="points=[];perimeter=orthogonalPerimeter;rounded=0;shadow=0;strokeWidth=1;" parent="3nuBFxr9cyL0pnOWT2aG-1" vertex="1">
          <mxGeometry x="45" y="348" width="10" height="259" as="geometry" />
        </mxCell>
        <mxCell id="3nuBFxr9cyL0pnOWT2aG-5" value="RegisterTime" style="shape=umlLifeline;perimeter=lifelinePerimeter;container=1;collapsible=0;recursiveResize=0;rounded=0;shadow=0;strokeWidth=1;" parent="1" vertex="1">
          <mxGeometry x="300" y="80" width="100" height="651" as="geometry" />
        </mxCell>
        <mxCell id="3nuBFxr9cyL0pnOWT2aG-6" value="" style="points=[];perimeter=orthogonalPerimeter;rounded=0;shadow=0;strokeWidth=1;" parent="3nuBFxr9cyL0pnOWT2aG-5" vertex="1">
          <mxGeometry x="45" y="80" width="10" height="203" as="geometry" />
        </mxCell>
        <mxCell id="XJ2rWfy9zvPIhmqtdK8Y-42" value="" style="points=[];perimeter=orthogonalPerimeter;rounded=0;shadow=0;strokeWidth=1;" parent="3nuBFxr9cyL0pnOWT2aG-5" vertex="1">
          <mxGeometry x="45" y="360" width="10" height="245" as="geometry" />
        </mxCell>
        <mxCell id="3nuBFxr9cyL0pnOWT2aG-7" value="" style="verticalAlign=bottom;endArrow=open;dashed=1;endSize=8;shadow=0;strokeWidth=1;exitX=-0.1;exitY=1;exitDx=0;exitDy=0;exitPerimeter=0;" parent="1" target="3nuBFxr9cyL0pnOWT2aG-2" edge="1" source="3nuBFxr9cyL0pnOWT2aG-6">
          <mxGeometry relative="1" as="geometry">
            <mxPoint x="275" y="236" as="targetPoint" />
            <mxPoint x="343" y="387" as="sourcePoint" />
            <Array as="points">
              <mxPoint x="271" y="363" />
            </Array>
          </mxGeometry>
        </mxCell>
        <mxCell id="3nuBFxr9cyL0pnOWT2aG-8" value="SetBeginTime&#xa;(Activity,Employee)" style="verticalAlign=bottom;endArrow=block;entryX=0;entryY=0;shadow=0;strokeWidth=1;" parent="1" source="3nuBFxr9cyL0pnOWT2aG-2" target="3nuBFxr9cyL0pnOWT2aG-6" edge="1">
          <mxGeometry relative="1" as="geometry">
            <mxPoint x="275" y="160" as="sourcePoint" />
          </mxGeometry>
        </mxCell>
        <mxCell id="GEfkpnBCydYt2Uem3Nhz-1" value="Employee" style="shape=umlLifeline;perimeter=lifelinePerimeter;container=1;collapsible=0;recursiveResize=0;rounded=0;shadow=0;strokeWidth=1;" parent="1" vertex="1">
          <mxGeometry x="440" y="80" width="100" height="652" as="geometry" />
        </mxCell>
        <mxCell id="GEfkpnBCydYt2Uem3Nhz-2" value="" style="points=[];perimeter=orthogonalPerimeter;rounded=0;shadow=0;strokeWidth=1;" parent="GEfkpnBCydYt2Uem3Nhz-1" vertex="1">
          <mxGeometry x="45" y="91" width="10" height="17" as="geometry" />
        </mxCell>
        <mxCell id="XJ2rWfy9zvPIhmqtdK8Y-43" value="" style="points=[];perimeter=orthogonalPerimeter;rounded=0;shadow=0;strokeWidth=1;" parent="GEfkpnBCydYt2Uem3Nhz-1" vertex="1">
          <mxGeometry x="45" y="369" width="10" height="17" as="geometry" />
        </mxCell>
        <mxCell id="GEfkpnBCydYt2Uem3Nhz-9" value="beginWorkOnActivity(Employee,Activity)" style="verticalAlign=bottom;endArrow=block;entryX=0;entryY=0;shadow=0;strokeWidth=1;" parent="1" edge="1">
          <mxGeometry x="-0.0588" relative="1" as="geometry">
            <mxPoint x="-60" y="150" as="sourcePoint" />
            <mxPoint x="170" y="150.0000000000001" as="targetPoint" />
            <mxPoint as="offset" />
          </mxGeometry>
        </mxCell>
        <mxCell id="GEfkpnBCydYt2Uem3Nhz-11" value="getEmployeeID()" style="verticalAlign=bottom;endArrow=block;shadow=0;strokeWidth=1;" parent="1" edge="1">
          <mxGeometry relative="1" as="geometry">
            <mxPoint x="360" y="170.0000000000001" as="sourcePoint" />
            <mxPoint x="490" y="170" as="targetPoint" />
          </mxGeometry>
        </mxCell>
        <mxCell id="GEfkpnBCydYt2Uem3Nhz-12" value="EmployeeID" style="verticalAlign=bottom;endArrow=open;dashed=1;endSize=8;shadow=0;strokeWidth=1;" parent="1" source="GEfkpnBCydYt2Uem3Nhz-1" target="3nuBFxr9cyL0pnOWT2aG-6" edge="1">
          <mxGeometry relative="1" as="geometry">
            <mxPoint x="360" y="210" as="targetPoint" />
            <mxPoint x="490" y="209.99999999999977" as="sourcePoint" />
            <Array as="points">
              <mxPoint x="462" y="194" />
              <mxPoint x="378" y="194" />
            </Array>
          </mxGeometry>
        </mxCell>
        <mxCell id="GEfkpnBCydYt2Uem3Nhz-13" value="Employee" style="shape=umlActor;verticalLabelPosition=bottom;verticalAlign=top;html=1;outlineConnect=0;" parent="1" vertex="1">
          <mxGeometry x="-80" y="49" width="30" height="60" as="geometry" />
        </mxCell>
        <mxCell id="GEfkpnBCydYt2Uem3Nhz-16" value="" style="points=[];perimeter=orthogonalPerimeter;rounded=0;shadow=0;strokeWidth=1;" parent="1" vertex="1">
          <mxGeometry x="-70" y="150" width="10" height="540" as="geometry" />
        </mxCell>
        <mxCell id="GEfkpnBCydYt2Uem3Nhz-17" value="" style="verticalAlign=bottom;endArrow=open;dashed=1;endSize=8;exitX=0;exitY=0.95;shadow=0;strokeWidth=1;" parent="1" edge="1">
          <mxGeometry relative="1" as="geometry">
            <mxPoint x="-58" y="397" as="targetPoint" />
            <mxPoint x="162" y="396.9999999999998" as="sourcePoint" />
          </mxGeometry>
        </mxCell>
        <mxCell id="GEfkpnBCydYt2Uem3Nhz-19" value="An Employee registers time on an activity" style="text;html=1;strokeColor=none;fillColor=none;align=center;verticalAlign=middle;whiteSpace=wrap;rounded=0;" parent="1" vertex="1">
          <mxGeometry x="-190" width="80" height="20" as="geometry" />
        </mxCell>
        <mxCell id="GEfkpnBCydYt2Uem3Nhz-24" value="" style="verticalAlign=bottom;endArrow=block;shadow=0;strokeWidth=1;" parent="1" edge="1">
          <mxGeometry relative="1" as="geometry">
            <mxPoint x="355" y="212" as="sourcePoint" />
            <mxPoint x="410" y="223" as="targetPoint" />
            <Array as="points">
              <mxPoint x="410" y="212" />
            </Array>
          </mxGeometry>
        </mxCell>
        <mxCell id="XJ2rWfy9zvPIhmqtdK8Y-1" value="Activity" style="shape=umlLifeline;perimeter=lifelinePerimeter;container=1;collapsible=0;recursiveResize=0;rounded=0;shadow=0;strokeWidth=1;" parent="1" vertex="1">
          <mxGeometry x="584" y="80" width="100" height="650" as="geometry" />
        </mxCell>
        <mxCell id="XJ2rWfy9zvPIhmqtdK8Y-2" value="" style="points=[];perimeter=orthogonalPerimeter;rounded=0;shadow=0;strokeWidth=1;" parent="XJ2rWfy9zvPIhmqtdK8Y-1" vertex="1">
          <mxGeometry x="45" y="195.5" width="10" height="19.5" as="geometry" />
        </mxCell>
        <mxCell id="XJ2rWfy9zvPIhmqtdK8Y-44" value="" style="points=[];perimeter=orthogonalPerimeter;rounded=0;shadow=0;strokeWidth=1;" parent="XJ2rWfy9zvPIhmqtdK8Y-1" vertex="1">
          <mxGeometry x="45" y="463.75" width="8" height="23.25" as="geometry" />
        </mxCell>
        <mxCell id="XJ2rWfy9zvPIhmqtdK8Y-45" value="" style="points=[];perimeter=orthogonalPerimeter;rounded=0;shadow=0;strokeWidth=1;" parent="XJ2rWfy9zvPIhmqtdK8Y-1" vertex="1">
          <mxGeometry x="47" y="570" width="8" height="23.25" as="geometry" />
        </mxCell>
        <mxCell id="XJ2rWfy9zvPIhmqtdK8Y-5" value="" style="verticalAlign=bottom;endArrow=open;dashed=1;endSize=8;exitX=0.5;exitY=1;shadow=0;strokeWidth=1;exitDx=0;exitDy=0;entryX=0.9;entryY=0.498;entryDx=0;entryDy=0;entryPerimeter=0;" parent="1" source="GEfkpnBCydYt2Uem3Nhz-26" target="3nuBFxr9cyL0pnOWT2aG-6" edge="1">
          <mxGeometry relative="1" as="geometry">
            <mxPoint x="355" y="266" as="targetPoint" />
            <mxPoint x="490" y="266" as="sourcePoint" />
            <Array as="points">
              <mxPoint x="411" y="261" />
            </Array>
          </mxGeometry>
        </mxCell>
        <mxCell id="GEfkpnBCydYt2Uem3Nhz-26" value="getTime (Calendar)" style="text;html=1;strokeColor=none;fillColor=none;align=center;verticalAlign=middle;whiteSpace=wrap;rounded=0;" parent="1" vertex="1">
          <mxGeometry x="369" y="222" width="83" height="31" as="geometry" />
        </mxCell>
        <mxCell id="XJ2rWfy9zvPIhmqtdK8Y-6" value="listEmployees()" style="verticalAlign=bottom;endArrow=block;shadow=0;strokeWidth=1;" parent="1" target="XJ2rWfy9zvPIhmqtdK8Y-2" edge="1">
          <mxGeometry x="0.4286" relative="1" as="geometry">
            <mxPoint x="356" y="278" as="sourcePoint" />
            <mxPoint x="486" y="278" as="targetPoint" />
            <mxPoint as="offset" />
          </mxGeometry>
        </mxCell>
        <mxCell id="XJ2rWfy9zvPIhmqtdK8Y-7" value="" style="verticalAlign=bottom;endArrow=open;dashed=1;endSize=8;exitX=0.5;exitY=0.38;shadow=0;strokeWidth=1;exitDx=0;exitDy=0;exitPerimeter=0;entryX=1.2;entryY=0.65;entryDx=0;entryDy=0;entryPerimeter=0;" parent="1" target="3nuBFxr9cyL0pnOWT2aG-6" edge="1">
          <mxGeometry x="-0.4286" relative="1" as="geometry">
            <mxPoint x="361" y="295" as="targetPoint" />
            <mxPoint x="628" y="294.5" as="sourcePoint" />
            <Array as="points">
              <mxPoint x="600" y="294.5" />
              <mxPoint x="516" y="294.5" />
            </Array>
            <mxPoint as="offset" />
          </mxGeometry>
        </mxCell>
        <mxCell id="XJ2rWfy9zvPIhmqtdK8Y-15" value="" style="verticalAlign=bottom;endArrow=block;shadow=0;strokeWidth=1;" parent="1" edge="1">
          <mxGeometry relative="1" as="geometry">
            <mxPoint x="355" y="305" as="sourcePoint" />
            <mxPoint x="410" y="316" as="targetPoint" />
            <Array as="points">
              <mxPoint x="410" y="305" />
            </Array>
          </mxGeometry>
        </mxCell>
        <mxCell id="XJ2rWfy9zvPIhmqtdK8Y-16" value="" style="verticalAlign=bottom;endArrow=open;dashed=1;endSize=8;shadow=0;strokeWidth=1;entryX=1.3;entryY=0.966;entryDx=0;entryDy=0;entryPerimeter=0;" parent="1" target="3nuBFxr9cyL0pnOWT2aG-6" edge="1">
          <mxGeometry relative="1" as="geometry">
            <mxPoint x="377" y="280.0920000000001" as="targetPoint" />
            <mxPoint x="409" y="348" as="sourcePoint" />
            <Array as="points">
              <mxPoint x="409" y="358" />
              <mxPoint x="385" y="358" />
            </Array>
          </mxGeometry>
        </mxCell>
        <mxCell id="XJ2rWfy9zvPIhmqtdK8Y-17" value="&lt;div&gt;begunActivity&lt;/div&gt;&lt;div&gt;(Employee,Activity)&lt;/div&gt;" style="text;html=1;strokeColor=none;fillColor=none;align=center;verticalAlign=middle;whiteSpace=wrap;rounded=0;" parent="1" vertex="1">
          <mxGeometry x="369" y="316" width="106" height="31" as="geometry" />
        </mxCell>
        <mxCell id="XJ2rWfy9zvPIhmqtdK8Y-22" value="" style="verticalAlign=bottom;endArrow=open;dashed=1;endSize=8;shadow=0;strokeWidth=1;" parent="1" edge="1">
          <mxGeometry relative="1" as="geometry">
            <mxPoint x="175" y="685" as="targetPoint" />
            <mxPoint x="343" y="685" as="sourcePoint" />
            <Array as="points" />
          </mxGeometry>
        </mxCell>
        <mxCell id="XJ2rWfy9zvPIhmqtdK8Y-23" value="SetFinishedTime&#xa;(Activity,Employee)" style="verticalAlign=bottom;endArrow=block;entryX=0;entryY=0;shadow=0;strokeWidth=1;" parent="1" edge="1">
          <mxGeometry x="0.0353" relative="1" as="geometry">
            <mxPoint x="175" y="438.0000000000002" as="sourcePoint" />
            <mxPoint x="345" y="438.0000000000002" as="targetPoint" />
            <mxPoint as="offset" />
          </mxGeometry>
        </mxCell>
        <mxCell id="XJ2rWfy9zvPIhmqtdK8Y-26" value="stopWorkOnActivity(Employee,Activity)" style="verticalAlign=bottom;endArrow=block;entryX=0;entryY=0;shadow=0;strokeWidth=1;" parent="1" edge="1">
          <mxGeometry x="-0.0588" relative="1" as="geometry">
            <mxPoint x="-60" y="428" as="sourcePoint" />
            <mxPoint x="170" y="428" as="targetPoint" />
            <mxPoint as="offset" />
          </mxGeometry>
        </mxCell>
        <mxCell id="XJ2rWfy9zvPIhmqtdK8Y-27" value="getEmployeeID()" style="verticalAlign=bottom;endArrow=block;shadow=0;strokeWidth=1;" parent="1" edge="1">
          <mxGeometry relative="1" as="geometry">
            <mxPoint x="360" y="448" as="sourcePoint" />
            <mxPoint x="490" y="448" as="targetPoint" />
          </mxGeometry>
        </mxCell>
        <mxCell id="XJ2rWfy9zvPIhmqtdK8Y-28" value="EmployeeID" style="verticalAlign=bottom;endArrow=open;dashed=1;endSize=8;exitX=0.5;exitY=0.38;shadow=0;strokeWidth=1;exitDx=0;exitDy=0;exitPerimeter=0;" parent="1" edge="1">
          <mxGeometry relative="1" as="geometry">
            <mxPoint x="355" y="472" as="targetPoint" />
            <mxPoint x="490" y="472" as="sourcePoint" />
            <Array as="points">
              <mxPoint x="462" y="472" />
              <mxPoint x="378" y="472" />
            </Array>
          </mxGeometry>
        </mxCell>
        <mxCell id="XJ2rWfy9zvPIhmqtdK8Y-30" value="" style="verticalAlign=bottom;endArrow=open;dashed=1;endSize=8;exitX=0;exitY=0.95;shadow=0;strokeWidth=1;" parent="1" edge="1">
          <mxGeometry relative="1" as="geometry">
            <mxPoint x="-57" y="688" as="targetPoint" />
            <mxPoint x="163" y="687.9999999999998" as="sourcePoint" />
          </mxGeometry>
        </mxCell>
        <mxCell id="XJ2rWfy9zvPIhmqtdK8Y-31" value="" style="verticalAlign=bottom;endArrow=block;shadow=0;strokeWidth=1;" parent="1" edge="1">
          <mxGeometry relative="1" as="geometry">
            <mxPoint x="355" y="490" as="sourcePoint" />
            <mxPoint x="410" y="501" as="targetPoint" />
            <Array as="points">
              <mxPoint x="410" y="490" />
            </Array>
          </mxGeometry>
        </mxCell>
        <mxCell id="XJ2rWfy9zvPIhmqtdK8Y-34" value="" style="verticalAlign=bottom;endArrow=open;dashed=1;endSize=8;exitX=0.5;exitY=1;shadow=0;strokeWidth=1;exitDx=0;exitDy=0;entryX=1.2;entryY=0.439;entryDx=0;entryDy=0;entryPerimeter=0;" parent="1" source="XJ2rWfy9zvPIhmqtdK8Y-35" edge="1">
          <mxGeometry relative="1" as="geometry">
            <mxPoint x="357" y="538.0920000000001" as="targetPoint" />
            <mxPoint x="490" y="544" as="sourcePoint" />
            <Array as="points">
              <mxPoint x="411" y="539" />
            </Array>
          </mxGeometry>
        </mxCell>
        <mxCell id="XJ2rWfy9zvPIhmqtdK8Y-35" value="getTime (Calendar)" style="text;html=1;strokeColor=none;fillColor=none;align=center;verticalAlign=middle;whiteSpace=wrap;rounded=0;" parent="1" vertex="1">
          <mxGeometry x="369" y="500" width="83" height="31" as="geometry" />
        </mxCell>
        <mxCell id="XJ2rWfy9zvPIhmqtdK8Y-36" value="listEmployees()" style="verticalAlign=bottom;endArrow=block;shadow=0;strokeWidth=1;" parent="1" edge="1">
          <mxGeometry x="0.4725" relative="1" as="geometry">
            <mxPoint x="356" y="546" as="sourcePoint" />
            <mxPoint x="629" y="546" as="targetPoint" />
            <mxPoint as="offset" />
          </mxGeometry>
        </mxCell>
        <mxCell id="XJ2rWfy9zvPIhmqtdK8Y-37" value="" style="verticalAlign=bottom;endArrow=open;dashed=1;endSize=8;exitX=0.5;exitY=0.38;shadow=0;strokeWidth=1;exitDx=0;exitDy=0;exitPerimeter=0;entryX=1;entryY=0.592;entryDx=0;entryDy=0;entryPerimeter=0;" parent="1" edge="1">
          <mxGeometry x="-0.4286" relative="1" as="geometry">
            <mxPoint x="353.5" y="567.4760000000001" as="targetPoint" />
            <mxPoint x="626.5" y="567" as="sourcePoint" />
            <Array as="points">
              <mxPoint x="598.5" y="567" />
              <mxPoint x="514.5" y="567" />
              <mxPoint x="439.5" y="567.5" />
            </Array>
            <mxPoint as="offset" />
          </mxGeometry>
        </mxCell>
        <mxCell id="XJ2rWfy9zvPIhmqtdK8Y-38" value="" style="verticalAlign=bottom;endArrow=block;shadow=0;strokeWidth=1;" parent="1" edge="1">
          <mxGeometry relative="1" as="geometry">
            <mxPoint x="355" y="583" as="sourcePoint" />
            <mxPoint x="410" y="594" as="targetPoint" />
            <Array as="points">
              <mxPoint x="410" y="583" />
            </Array>
          </mxGeometry>
        </mxCell>
        <mxCell id="XJ2rWfy9zvPIhmqtdK8Y-39" value="" style="verticalAlign=bottom;endArrow=open;dashed=1;endSize=8;shadow=0;strokeWidth=1;entryX=1;entryY=0.868;entryDx=0;entryDy=0;entryPerimeter=0;" parent="1" edge="1">
          <mxGeometry relative="1" as="geometry">
            <mxPoint x="355" y="635.904" as="targetPoint" />
            <mxPoint x="409" y="626" as="sourcePoint" />
            <Array as="points">
              <mxPoint x="409" y="636" />
              <mxPoint x="385" y="636" />
            </Array>
          </mxGeometry>
        </mxCell>
        <mxCell id="XJ2rWfy9zvPIhmqtdK8Y-40" value="&lt;div&gt;begunActivity&lt;/div&gt;&lt;div&gt;(Employee,Activity)&lt;/div&gt;" style="text;html=1;strokeColor=none;fillColor=none;align=center;verticalAlign=middle;whiteSpace=wrap;rounded=0;" parent="1" vertex="1">
          <mxGeometry x="369" y="594" width="106" height="31" as="geometry" />
        </mxCell>
        <mxCell id="XJ2rWfy9zvPIhmqtdK8Y-46" value="registerTimeSpent(time)" style="verticalAlign=bottom;endArrow=block;shadow=0;strokeWidth=1;" parent="1" edge="1">
          <mxGeometry x="0.4725" relative="1" as="geometry">
            <mxPoint x="360" y="649" as="sourcePoint" />
            <mxPoint x="633" y="649" as="targetPoint" />
            <mxPoint as="offset" />
          </mxGeometry>
        </mxCell>
        <mxCell id="XJ2rWfy9zvPIhmqtdK8Y-48" value="" style="verticalAlign=bottom;endArrow=open;dashed=1;endSize=8;exitX=0.5;exitY=0.38;shadow=0;strokeWidth=1;exitDx=0;exitDy=0;exitPerimeter=0;entryX=1;entryY=0.592;entryDx=0;entryDy=0;entryPerimeter=0;" parent="1" edge="1">
          <mxGeometry x="-0.4286" relative="1" as="geometry">
            <mxPoint x="356" y="673.4760000000001" as="targetPoint" />
            <mxPoint x="629" y="673" as="sourcePoint" />
            <Array as="points">
              <mxPoint x="601" y="673" />
              <mxPoint x="517" y="673" />
              <mxPoint x="442" y="673.5" />
            </Array>
            <mxPoint as="offset" />
          </mxGeometry>
        </mxCell>
        <mxCell id="6yH7xLg_LbMXruci4y6D-2" value="" style="endArrow=none;dashed=1;html=1;exitX=0.5;exitY=1.004;exitDx=0;exitDy=0;exitPerimeter=0;" edge="1" parent="1" source="GEfkpnBCydYt2Uem3Nhz-16">
          <mxGeometry width="50" height="50" relative="1" as="geometry">
            <mxPoint x="254" y="485" as="sourcePoint" />
            <mxPoint x="-65" y="726" as="targetPoint" />
          </mxGeometry>
        </mxCell>
      </root>
    </mxGraphModel>
  </diagram>
</mxfile>
